<svg width="512" height="512" viewBox="0 0 200 200" fill="none" xmlns="http://www.w3.org/2000/svg">
  <rect width="200" height="200" rx="45" fill="#efefef"/>
  <path d="M 78,72 C 78,65 84,62 90,66 L 128,90 C 135,94 135,106 128,110 L 90,134 C 84,138 78,135 78,128 Z" fill="#111"/>
  <path d="M 65,55 C 65,46 73,42 80,47 L 141,83 C 149,88 149,112 141,117 L 80,153 C 73,158 65,154 65,145 Z" fill="none" stroke="#111" stroke-width="2" stroke-linejoin="round" opacity="0.35"/>
  <path d="M 52,38 C 52,27 62,22 70,28 L 154,76 C 163,82 163,118 154,124 L 70,172 C 62,178 52,173 52,162 Z" fill="none" stroke="#111" stroke-width="1.5" stroke-linejoin="round" opacity="0.15"/>
</svg>
